<?xml version="1.0" encoding="UTF-8" standalone="no"?>
<!-- Created with Inkscape (http://www.inkscape.org/) -->

<svg
   xmlns:dc="http://purl.org/dc/elements/1.1/"
   xmlns:cc="http://creativecommons.org/ns#"
   xmlns:rdf="http://www.w3.org/1999/02/22-rdf-syntax-ns#"
   xmlns:svg="http://www.w3.org/2000/svg"
   xmlns="http://www.w3.org/2000/svg"
   xmlns:sodipodi="http://sodipodi.sourceforge.net/DTD/sodipodi-0.dtd"
   xmlns:inkscape="http://www.inkscape.org/namespaces/inkscape"
   width="105.44402mm"
   height="36.307995mm"
   viewBox="0 0 373.62055 128.65037"
   id="svg3510"
   version="1.1"
   inkscape:version="0.91 r13725"
   sodipodi:docname="logo-105x36.svg">
  <defs
     id="defs3512" />
  <sodipodi:namedview
     id="base"
     pagecolor="#ffffff"
     bordercolor="#666666"
     borderopacity="1.0"
     inkscape:pageopacity="0.0"
     inkscape:pageshadow="2"
     inkscape:zoom="1"
     inkscape:cx="-125.33258"
     inkscape:cy="164.32519"
     inkscape:document-units="px"
     inkscape:current-layer="layer1"
     showgrid="false"
     fit-margin-top="0"
     fit-margin-left="0"
     fit-margin-right="0"
     fit-margin-bottom="0"
     inkscape:window-width="1920"
     inkscape:window-height="1056"
     inkscape:window-x="0"
     inkscape:window-y="24"
     inkscape:window-maximized="1" />
  <metadata
     id="metadata3515">
    <rdf:RDF>
      <cc:Work
         rdf:about="">
        <dc:format>image/svg+xml</dc:format>
        <dc:type
           rdf:resource="http://purl.org/dc/dcmitype/StillImage" />
        <dc:title></dc:title>
      </cc:Work>
    </rdf:RDF>
  </metadata>
  <g
     inkscape:label="Layer 1"
     inkscape:groupmode="layer"
     id="layer1"
     transform="translate(-207.47544,-568.03701)">
    <g
       id="g3560">
      <g
         transform="matrix(1.25,0,0,-1.25,393.21982,664.06039)"
         id="g12">
        <path
           inkscape:connector-curvature="0"
           id="path14"
           style="fill:#000000;fill-opacity:1;fill-rule:nonzero;stroke:none"
           d="m 0,0 -30.999,0 23.817,42.424 -17.889,0 0,8.166 32.025,0 L -16.394,8.357 0,8.357 0,0 Z" />
      </g>
      <g
         transform="matrix(1.25,0,0,-1.25,429.42344,638.86139)"
         id="g24">
        <path
           inkscape:connector-curvature="0"
           id="path26"
           style="fill:#000000;fill-opacity:1;fill-rule:nonzero;stroke:none"
           d="M 0,0 C -1.574,3.02 -4.041,4.529 -7.4,4.529 -10.804,4.529 -13.291,3.02 -14.864,0 L 0,0 Z m 9.633,-3.899 c 0,-0.849 -0.064,-1.697 -0.192,-2.544 l -24.943,0 c 0.552,-1.807 1.572,-3.257 3.062,-4.353 1.488,-1.097 3.168,-1.644 5.04,-1.644 2.593,0 4.742,1.021 6.443,3.062 l 5.231,-6.954 c -3.275,-3.105 -7.167,-4.657 -11.674,-4.657 -4.764,0 -8.804,1.655 -12.121,4.967 -3.318,3.311 -4.976,7.344 -4.976,12.099 0,4.712 1.668,8.723 5.008,12.034 3.338,3.311 7.368,4.967 12.089,4.967 4.72,0 8.74,-1.654 12.057,-4.96 C 7.975,4.812 9.633,0.806 9.633,-3.899" />
      </g>
      <g
         transform="matrix(1.25,0,0,-1.25,457.81224,643.80526)"
         id="g28">
        <path
           inkscape:connector-curvature="0"
           id="path30"
           style="fill:#000000;fill-opacity:1;fill-rule:nonzero;stroke:none"
           d="m 0,0 c 0,-2.357 0.829,-4.361 2.487,-6.011 1.659,-1.65 3.658,-2.474 5.997,-2.474 2.339,0 4.328,0.824 5.965,2.474 1.637,1.65 2.456,3.654 2.456,6.011 0,2.356 -0.819,4.36 -2.456,6.01 C 12.812,7.659 10.823,8.484 8.484,8.484 6.145,8.484 4.146,7.659 2.487,6.01 0.829,4.36 0,2.356 0,0 m -8.612,0 c 0,4.763 1.658,8.792 4.975,12.089 3.318,3.295 7.358,4.944 12.121,4.944 4.721,0 8.741,-1.658 12.058,-4.976 C 23.859,8.74 25.518,4.721 25.518,0 c 0,-4.721 -1.659,-8.74 -4.976,-12.058 -3.317,-3.317 -7.337,-4.976 -12.058,-4.976 -3.062,0 -5.89,0.745 -8.484,2.233 l 0,-19.585 -8.612,0 0,34.386 z" />
      </g>
      <g
         transform="matrix(1.25,0,0,-1.25,505.97744,663.90114)"
         id="g32">
        <path
           inkscape:connector-curvature="0"
           id="path34"
           style="fill:#000000;fill-opacity:1;fill-rule:nonzero;stroke:none"
           d="m 0,0 -8.612,0 0,50.462 8.612,0 0,-19.521 c 2.636,1.445 5.464,2.169 8.484,2.169 4.721,0 8.75,-1.656 12.089,-4.967 3.339,-3.311 5.009,-7.323 5.009,-12.034 l 0,-16.109 -8.613,0 0,16.14 c 0,2.297 -0.833,4.275 -2.497,5.933 -1.665,1.659 -3.651,2.488 -5.955,2.488 -2.349,0 -4.356,-0.819 -6.02,-2.456 C 0.832,20.467 0,18.479 0,16.14 L 0,0 Z" />
      </g>
      <path
         inkscape:connector-curvature="0"
         id="path36"
         style="fill:#000000;fill-opacity:1;fill-rule:nonzero;stroke:none"
         d="m 543.45719,622.51364 10.765,0 0,41.3875 -10.765,0 0,-41.3875 z m -1.1175,-9.17 c 0,-1.8075 0.62375,-3.3225 1.87375,-4.54625 1.24875,-1.2225 2.7775,-1.83375 4.585,-1.83375 1.755,0 3.25625,0.625 4.50625,1.87375 1.24875,1.25 1.875,2.75125 1.875,4.50625 0,1.8075 -0.61375,3.33625 -1.835,4.585 -1.22375,1.25 -2.74,1.87375 -4.54625,1.87375 -1.8075,0 -3.33625,-0.62375 -4.585,-1.87375 -1.25,-1.24875 -1.87375,-2.7775 -1.87375,-4.585" />
      <g
         transform="matrix(1.25,0,0,-1.25,565.98474,628.65389)"
         id="g38">
        <path
           inkscape:connector-curvature="0"
           id="path40"
           style="fill:#000000;fill-opacity:1;fill-rule:nonzero;stroke:none"
           d="m 0,0 c 3.338,3.317 7.368,4.976 12.089,4.976 l 0,-8.613 c -2.34,0 -4.338,-0.819 -5.997,-2.456 C 4.434,-7.73 3.604,-9.719 3.604,-12.058 l 0,-16.14 -8.612,0 0,16.14 C -5.008,-7.336 -3.34,-3.317 0,0" />
      </g>
      <g
         transform="matrix(1.25,0,0,-1.25,322.72419,644.42364)"
         id="g42">
        <path
           inkscape:connector-curvature="0"
           id="path44"
           style="fill:#3f2084;fill-opacity:1;fill-rule:nonzero;stroke:none"
           d="M 0,0 -40.739,-20.369 -81.479,0 l -10.72,-16.081 51.46,-25.73 51.46,25.73 L 0,0 Z" />
      </g>
      <g
         transform="matrix(1.25,0,0,-1.25,320.93719,641.74289)"
         id="g46">
        <path
           inkscape:connector-curvature="0"
           id="path48"
           style="fill:#49489b;fill-opacity:1;fill-rule:nonzero;stroke:none"
           d="M 0,0 -11.436,17.153 -39.31,3.216 -67.184,17.153 -78.619,0 -39.31,-19.655 0,0 Z" />
      </g>
      <g
         transform="matrix(1.25,0,0,-1.25,304.85556,617.62127)"
         id="g50">
        <path
           inkscape:connector-curvature="0"
           id="path52"
           style="fill:#5c439e;fill-opacity:1;fill-rule:nonzero;stroke:none"
           d="M 0,0 -11.436,17.153 -26.444,9.648 -41.453,17.153 -52.889,0 -26.444,-13.222 0,0 Z" />
      </g>
      <g
         transform="matrix(1.25,0,0,-1.25,288.77531,593.49951)"
         id="g54">
        <path
           inkscape:connector-curvature="0"
           id="path56"
           style="fill:#804ea3;fill-opacity:1;fill-rule:nonzero;stroke:none"
           d="M 0,0 -13.58,20.37 -27.16,0 -13.58,-6.79 0,0 Z" />
      </g>
    </g>
  </g>
</svg>
